<?xml version="1.0" encoding="utf-8"?>
<!-- Generator: Adobe Illustrator 23.1.0, SVG Export Plug-In . SVG Version: 6.00 Build 0)  -->
<svg version="1.1" xmlns="http://www.w3.org/2000/svg" xmlns:xlink="http://www.w3.org/1999/xlink" x="0px" y="0px"
	 viewBox="0 0 1362.8 918.66" style="enable-background:new 0 0 1362.8 918.66;" xml:space="preserve">
<style type="text/css">
	.st0{fill:#F8F4FF;}
	.st1{display:none;fill:#E71B3E;}
	.st2{display:none;fill:#231F20;}
	.st3{display:none;fill:#293439;}
	.st4{display:none;}
	.st5{display:inline;fill:#293439;}
	.st6{display:inline;}
	.st7{fill:#293439;}
	.st8{display:inline;fill:#231F20;}
	.st9{fill:#FFE302;}
	.st10{fill:#7DF9FF;}
</style>
<g id="Layer_1">
</g>
<g id="Layer_2">
	<path class="st0" d="M366.91,391.17v121.05l104.83,60.52l104.83-60.52V391.17l-104.83-60.52L366.91,391.17z M524.15,421.43v60.52
		l-52.42,30.26l-52.42-30.26v-60.52l52.42-30.26L524.15,421.43z"/>
	<polygon class="st0" points="1100.72,421.49 1100.72,481.99 1048.31,512.25 995.89,481.99 995.89,470.13 995.89,421.46 
		995.89,391.13 969.77,376.05 969.77,376.02 943.47,391.2 943.47,512.25 1048.31,572.77 1153.14,512.25 1153.14,391.23 	"/>
	<polygon class="st0" points="1022.33,557.72 1022.33,618.21 969.91,648.48 969.91,709 1074.75,648.48 1074.75,527.46 	"/>
	<path class="st1" d="M1153.14,391.13v121.05l104.83,60.52l104.83-60.52V391.13l-104.83-60.52L1153.14,391.13z M1310.38,421.4v60.52
		l-52.42,30.26l-52.42-30.26V421.4l52.42-30.26L1310.38,421.4z"/>
	<path class="st1" d="M0,398.79v121.05l104.83,60.52l104.83-60.52V398.79l-104.83-60.52L0,398.79z M157.25,429.05v60.52
		l-52.42,30.26l-52.42-30.26v-60.52l52.42-30.26L157.25,429.05z"/>
	<path class="st1" d="M848.87,918.66h121.05l60.52-104.83L969.92,709H848.87l-60.52,104.83L848.87,918.66z M879.13,761.42h60.52
		l30.26,52.42l-30.26,52.42h-60.52l-30.26-52.42L879.13,761.42z"/>
	<path class="st1" d="M778.12,209.66h121.05l60.52-104.83L899.17,0H778.12L717.6,104.83L778.12,209.66z M808.38,52.42h60.52
		l30.26,52.42l-30.26,52.42h-60.52l-30.26-52.42L808.38,52.42z"/>
</g>
<g id="Layer_3_copy">
	<path class="st0" d="M786.23,391.14v121.05l104.83,60.52l104.83-60.52V391.14l-104.83-60.52L786.23,391.14z M943.47,421.4v60.52
		l-52.42,30.26l-52.42-30.26V421.4l52.42-30.26L943.47,421.4z"/>
	<path class="st0" d="M786.23,249.83c0,67.28,0,134.55,0,201.83h52.42V209.63l-52.42,30.26
		C786.23,243.2,786.23,246.52,786.23,249.83z"/>
	<path class="st2" d="M605.25,551.47c0-23.63,0-47.26,0-70.89h-18.41v85.02l18.41-10.63C605.25,553.8,605.25,552.63,605.25,551.47z"
		/>
	<path class="st0" d="M209.66,249.86c0,67.28,0,134.55,0,201.83h52.42V209.66l-52.42,30.26
		C209.66,243.24,209.66,246.55,209.66,249.86z"/>
	<polygon class="st0" points="366.44,421.19 366.91,421.46 366.91,481.99 314.49,512.25 262.08,481.99 262.08,421.46 262.55,421.19 
		209.66,421.19 209.66,512.25 314.49,572.77 419.32,512.25 419.32,421.19 	"/>
	<polygon class="st3" points="642.07,485.87 642.07,496.5 651.28,501.81 660.48,496.5 660.48,485.87 651.28,480.55 	"/>
</g>
<g id="Layer_5" class="st4">
	<path class="st5" d="M724.92,438.02v42.52l36.82,21.26l36.82-21.26v-42.52l-36.82-21.26L724.92,438.02z M780.16,448.65v21.26
		l-18.41,10.63l-18.41-10.63v-21.26l18.41-10.63L780.16,448.65z"/>
	<path class="st5" d="M669.69,388.41c0,23.63,0,47.26,0,70.89h18.41v-85.02l-18.41,10.63C669.69,386.08,669.69,387.24,669.69,388.41
		z"/>
	<path class="st5" d="M899.83,388.4c0,23.63,0,47.26,0,70.89h18.41v-85.02l-18.41,10.63C899.83,386.07,899.83,387.23,899.83,388.4z"
		/>
	<polygon class="st5" points="706.51,416.77 669.69,438.03 669.69,480.55 669.71,480.56 688.12,469.93 688.1,469.92 688.1,448.66 
		706.51,438.03 724.92,448.66 724.92,469.92 724.9,469.93 743.31,480.56 743.33,480.55 743.33,438.03 	"/>
	<polygon class="st5" points="890.63,448.67 909.04,438.04 927.45,448.67 927.45,448.68 945.86,438.05 945.86,438.04 909.04,416.78 
		872.22,438.04 872.22,438.06 890.63,448.69 	"/>
	<g class="st6">
		<polygon class="st7" points="835.39,416.78 798.59,438.03 817,448.66 835.39,438.04 853.8,448.67 853.8,448.69 872.22,438.06 
			872.22,438.04 		"/>
		<polygon class="st7" points="853.79,469.94 835.39,480.56 816.98,469.93 816.98,469.93 798.57,480.56 798.57,480.56 
			835.39,501.82 872.21,480.57 		"/>
	</g>
	<polygon class="st5" points="872.21,469.9 807.8,432.72 795.17,440.01 792.27,445.02 863.02,485.87 872.21,480.57 	"/>
	<path class="st5" d="M918.24,485.85v-64.84l-18.41,10.63c0,1.16,0,2.33,0,3.49c0,20.45,0,40.9,0,61.35L918.24,485.85z"/>
	<path class="st5" d="M688.1,476.65c0-23.63,0-47.26,0-70.89h-18.41v85.02l18.41-10.63C688.1,478.98,688.1,477.81,688.1,476.65z"/>
	<rect x="1168.64" y="626.28" class="st8" width="56.26" height="101.03"/>
	<polygon class="st5" points="927.45,469.93 909.04,480.56 890.63,469.93 890.63,469.92 872.22,480.55 872.22,480.56 909.04,501.82 
		945.86,480.56 	"/>
</g>
<g id="Layer_3">
	<path class="st0" d="M576.57,391.17v121.05l104.83,60.52l104.83-60.52V391.17L681.4,330.64L576.57,391.17z M733.81,421.43v60.52
		l-52.42,30.26l-52.42-30.26v-60.52l52.42-30.26L733.81,421.43z"/>
	<path class="st0" d="M576.57,249.86c0,67.28,0,134.55,0,201.83h52.42V209.66l-52.42,30.26
		C576.57,243.24,576.57,246.55,576.57,249.86z"/>
	<polygon class="st9" points="944.18,362.06 944.18,362.06 891.06,331.39 838.64,361.65 838.64,420.61 891.06,390.35 944.18,421.02 
		995.24,391.54 	"/>
	<polygon class="st10" points="734.52,362.06 734.52,362.06 681.4,331.39 628.98,361.65 628.98,420.61 681.4,390.35 734.52,421.02 
		785.59,391.54 	"/>
</g>
<g id="Layer_6">
	<g>
		<path class="st0" d="M209.67,709v-28.13h28.13V709H209.67z"/>
		<path class="st0" d="M357.26,709h-20.28V600.93h20.28v39.38l10.51-6.07h19.39l17.17,9.92V709h-20.28v-57.44h-26.79V709z"/>
		<path class="st0" d="M566.43,699.82l-17.17,9.92h-31.53l-17.17-9.92v-55.66l17.17-9.92h31.53l17.17,9.92V699.82z M520.84,651.56
			v40.86h25.31v-40.86H520.84z"/>
		<path class="st0" d="M721.28,672.58v26.5L704.11,709h-41.45v-17.32H701v-11.4h-21.17l-17.17-9.92V644.9l17.17-9.92h39.97v17.32
			h-36.86v10.36h21.17L721.28,672.58z"/>
		<path class="st0" d="M811.58,652.3v-17.32h13.62v-12.44l20.28-11.7v24.13h16.28v17.32h-16.28v39.38h16.28V709h-19.39l-17.17-9.92
			V652.3H811.58z"/>
	</g>
</g>
</svg>
